<svg xmlns="http://www.w3.org/2000/svg" version="1.1" xmlns:xlink="http://www.w3.org/1999/xlink" xmlns:svgjs="http://svgjs.com/svgjs" width="1440" height="792" preserveAspectRatio="none" viewBox="0 0 1440 792"><g mask="url(&quot;#SvgjsMask1222&quot;)" fill="none"><rect width="1440" height="792" x="0" y="0" fill="url(#SvgjsLinearGradient1223)"></rect><path d="M78 792L870 0L1542 0L750 792z" fill="url(#SvgjsLinearGradient1224)"></path><path d="M512.2 792L1304.2 0L1748.2 0L956.2 792z" fill="url(#SvgjsLinearGradient1224)"></path><path d="M1360 792L568 0L320.5 0L1112.5 792z" fill="url(#SvgjsLinearGradient1225)"></path><path d="M923.8 792L131.79999999999995 0L-129.20000000000005 0L662.8 792z" fill="url(#SvgjsLinearGradient1225)"></path><path d="M959.467253007402 792L1440 311.46725300740195L1440 792z" fill="url(#SvgjsLinearGradient1224)"></path><path d="M0 792L480.53274699259805 792L 0 311.46725300740195z" fill="url(#SvgjsLinearGradient1225)"></path></g><defs><mask id="SvgjsMask1222"><rect width="1440" height="792" fill="#ffffff"></rect></mask><linearGradient x1="11.25%" y1="-20.45%" x2="88.75%" y2="120.45%" gradientUnits="userSpaceOnUse" id="SvgjsLinearGradient1223"><stop stop-color="#0e2a47" offset="0"></stop><stop stop-color="rgba(158, 36, 0, 1)" offset="1"></stop></linearGradient><linearGradient x1="0%" y1="100%" x2="100%" y2="0%" id="SvgjsLinearGradient1224"><stop stop-color="rgba(224, 79, 14, 1)" offset="0"></stop><stop stop-opacity="0" stop-color="rgba(224, 79, 14, 1)" offset="0.66"></stop></linearGradient><linearGradient x1="100%" y1="100%" x2="0%" y2="0%" id="SvgjsLinearGradient1225"><stop stop-color="rgba(224, 79, 14, 1)" offset="0"></stop><stop stop-opacity="0" stop-color="rgba(224, 79, 14, 1)" offset="0.66"></stop></linearGradient></defs></svg>